<svg width="20" height="20" viewBox="0 0 20 20" fill="none" xmlns="http://www.w3.org/2000/svg">
<rect x="0.5" y="0.5" width="19" height="19" rx="2.5" stroke="white"/>
<path fill-rule="evenodd" clip-rule="evenodd" d="M12 17.748C15.4505 16.8599 18 13.7277 18 10C18 5.58172 14.4183 2 10 2C5.58172 2 2 5.58172 2 10C2 13.7277 4.54955 16.8599 8 17.748V15C8 15 7.20734 15.4981 6.5 15.5C5.83006 15.471 5.51218 15.3405 5 15C4.60703 14.5959 4.39615 13.9991 4.23784 13.551C4.14971 13.3016 4.07788 13.0983 4 13C3.78221 12.7251 4.43753 13.1535 5 14C5.52581 14.3755 5.96759 14.4332 6.5 14.5C7.11493 14.5772 8 14 8 14V13C8 12.5175 8.17084 12.075 8.45533 11.7295C7.01312 11.2007 6 9.95389 6 8.5C6 7.638 6.35613 6.84878 6.94668 6.23885C6.83933 5.66239 6.84207 5.24079 7.00001 4.5C7.70224 4.66556 8.10866 4.86791 8.61041 5.21697C9.04325 5.07666 9.51139 5 10 5C10.4886 5 10.9568 5.07666 11.3896 5.21697C11.8913 4.86791 12.2978 4.66556 13 4.5C13.1579 5.24079 13.1607 5.6624 13.0533 6.23885C13.6439 6.84878 14 7.638 14 8.5C14 9.95389 12.9869 11.2007 11.5447 11.7295C11.8292 12.075 12 12.5175 12 13V17.748Z" fill="white"/>
</svg>
