<svg width="20" height="20" viewBox="0 0 20 20" fill="none" xmlns="http://www.w3.org/2000/svg">
<mask id="path-1-inside-1_1_9" fill="white">
<path fill-rule="evenodd" clip-rule="evenodd" d="M3 0C1.34315 0 0 1.34315 0 3V17C0 18.6569 1.34315 20 3 20H17C18.6569 20 20 18.6569 20 17V3C20 1.34315 18.6569 0 17 0H3ZM10 14C12.2092 14 14 12.2092 14 10C14 7.79087 12.2092 6.00001 10 6.00001C7.79087 6.00001 6.00001 7.79087 6.00001 10C6.00001 12.2092 7.79087 14 10 14Z"/>
</mask>
<path d="M1 3C1 1.89543 1.89543 1 3 1V-1C0.790861 -1 -1 0.79086 -1 3H1ZM1 17V3H-1V17H1ZM3 19C1.89543 19 1 18.1046 1 17H-1C-1 19.2091 0.790861 21 3 21V19ZM17 19H3V21H17V19ZM19 17C19 18.1046 18.1046 19 17 19V21C19.2091 21 21 19.2091 21 17H19ZM19 3V17H21V3H19ZM17 1C18.1046 1 19 1.89543 19 3H21C21 0.790861 19.2091 -1 17 -1V1ZM3 1H17V-1H3V1ZM13 10C13 11.6569 11.6569 13 10 13V15C12.7614 15 15 12.7614 15 10H13ZM10 7.00001C11.6569 7.00001 13 8.34316 13 10H15C15 7.23859 12.7614 5.00001 10 5.00001V7.00001ZM7.00001 10C7.00001 8.34316 8.34316 7.00001 10 7.00001V5.00001C7.23859 5.00001 5.00001 7.23859 5.00001 10H7.00001ZM10 13C8.34316 13 7.00001 11.6569 7.00001 10H5.00001C5.00001 12.7614 7.23859 15 10 15V13Z" fill="white" mask="url(#path-1-inside-1_1_9)"/>
<circle cx="15.8" cy="4.20001" r="0.5" stroke="white"/>
</svg>
