<svg width="15" height="20" viewBox="0 0 15 20" fill="none" xmlns="http://www.w3.org/2000/svg">
<path d="M0.544251 8.19376C0.545036 5.35365 2.15158 2.86797 4.72593 1.81719C8.70053 0.195058 13.2969 2.39688 14.1128 6.90391C14.5134 9.11693 13.9686 11.106 12.545 12.8466C11.038 14.6896 9.51598 16.5203 8.0008 18.3568C7.6076 18.8333 7.17409 18.8333 6.78221 18.3576C5.21048 16.4505 3.62436 14.555 2.07069 12.6331C1.05158 11.3727 0.543727 9.81198 0.544251 8.19376ZM7.38849 5.31251C5.89792 5.31823 4.70106 6.51797 4.70315 8.00417C4.70525 9.48047 5.92279 10.6781 7.41441 10.6714C8.88299 10.6646 10.0882 9.44688 10.0796 7.97865C10.0707 6.50391 8.86258 5.30704 7.38849 5.31251Z" fill="white"/>
</svg>
