<svg width="20" height="37" viewBox="0 0 20 37" fill="none" xmlns="http://www.w3.org/2000/svg">
<mask id="path-1-inside-1_19_8" fill="white">
<path fill-rule="evenodd" clip-rule="evenodd" d="M20 10C20 13.0929 18.5959 15.8579 16.3903 17.6922C13.2214 21.4558 11.441 26.3773 10 37C8.55896 26.3773 6.77858 21.4557 3.60972 17.6922C1.40413 15.8579 0 13.0929 0 10C0 4.47715 4.47715 0 10 0C15.5228 0 20 4.47715 20 10ZM10 12C11.6569 12 13 10.6569 13 9C13 7.34315 11.6569 6 10 6C8.34315 6 7 7.34315 7 9C7 10.6569 8.34315 12 10 12Z"/>
</mask>
<path fill-rule="evenodd" clip-rule="evenodd" d="M20 10C20 13.0929 18.5959 15.8579 16.3903 17.6922C13.2214 21.4558 11.441 26.3773 10 37C8.55896 26.3773 6.77858 21.4557 3.60972 17.6922C1.40413 15.8579 0 13.0929 0 10C0 4.47715 4.47715 0 10 0C15.5228 0 20 4.47715 20 10ZM10 12C11.6569 12 13 10.6569 13 9C13 7.34315 11.6569 6 10 6C8.34315 6 7 7.34315 7 9C7 10.6569 8.34315 12 10 12Z" fill="#A00101"/>
<path d="M16.3903 17.6922L15.7508 16.9233L15.6825 16.9802L15.6253 17.0481L16.3903 17.6922ZM10 37L9.00908 37.1344L10.9909 37.1344L10 37ZM3.60972 17.6922L4.37468 17.0481L4.31746 16.9801L4.24915 16.9233L3.60972 17.6922ZM17.0297 18.461C19.4539 16.4449 21 13.4025 21 10H19C19 12.7833 17.7378 15.2709 15.7508 16.9233L17.0297 18.461ZM10.9909 37.1344C12.4264 26.553 14.1777 21.8727 17.1552 18.3363L15.6253 17.0481C12.2652 21.0389 10.4557 26.2016 9.00908 36.8656L10.9909 37.1344ZM2.84476 18.3362C5.82234 21.8726 7.57364 26.553 9.00908 37.1344L10.9909 36.8656C9.54428 26.2016 7.73482 21.0388 4.37468 17.0481L2.84476 18.3362ZM-1 10C-1 13.4025 0.54605 16.4449 2.97029 18.461L4.24915 16.9233C2.26222 15.2709 1 12.7833 1 10H-1ZM10 -1C3.92487 -1 -1 3.92487 -1 10H1C1 5.02944 5.02944 1 10 1V-1ZM21 10C21 3.92487 16.0751 -1 10 -1V1C14.9706 1 19 5.02944 19 10H21ZM12 9C12 10.1046 11.1046 11 10 11V13C12.2091 13 14 11.2091 14 9H12ZM10 7C11.1046 7 12 7.89543 12 9H14C14 6.79086 12.2091 5 10 5V7ZM8 9C8 7.89543 8.89543 7 10 7V5C7.79086 5 6 6.79086 6 9H8ZM10 11C8.89543 11 8 10.1046 8 9H6C6 11.2091 7.79086 13 10 13V11Z" fill="black" mask="url(#path-1-inside-1_19_8)"/>
</svg>
