<svg width="20" height="20" viewBox="0 0 20 20" fill="none" xmlns="http://www.w3.org/2000/svg">
<rect x="0.5" y="0.5" width="19" height="19" rx="2.5" stroke="white"/>
<path d="M4.58345 15V7.36364H6.70135V15H4.58345ZM5.64737 6.37926C5.3325 6.37926 5.06238 6.27486 4.837 6.06605C4.61494 5.85393 4.50391 5.60038 4.50391 5.3054C4.50391 5.01373 4.61494 4.76349 4.837 4.55469C5.06238 4.34257 5.3325 4.23651 5.64737 4.23651C5.96224 4.23651 6.23071 4.34257 6.45277 4.55469C6.67815 4.76349 6.79084 5.01373 6.79084 5.3054C6.79084 5.60038 6.67815 5.85393 6.45277 6.06605C6.23071 6.27486 5.96224 6.37926 5.64737 6.37926ZM10.5158 10.5852V15H8.3979V7.36364H10.4164V8.71094H10.5059C10.6749 8.26681 10.9583 7.91548 11.356 7.65696C11.7537 7.39512 12.236 7.2642 12.8027 7.2642C13.333 7.2642 13.7954 7.38021 14.1898 7.61222C14.5842 7.84422 14.8908 8.17566 15.1096 8.60653C15.3283 9.03409 15.4377 9.54451 15.4377 10.1378V15H13.3198V10.5156C13.3231 10.0483 13.2038 9.68371 12.9618 9.42188C12.7199 9.15672 12.3868 9.02415 11.9625 9.02415C11.6775 9.02415 11.4256 9.08546 11.2069 9.2081C10.9914 9.33073 10.8224 9.50971 10.6998 9.74503C10.5804 9.97704 10.5191 10.2571 10.5158 10.5852Z" fill="white"/>
</svg>
